<svg width="27" height="23" viewBox="0 0 27 23" fill="none" xmlns="http://www.w3.org/2000/svg">
<path d="M23.5 3H20.035L18.3312 0.445C18.24 0.30819 18.1164 0.196004 17.9714 0.118382C17.8264 0.0407602 17.6645 9.87561e-05 17.5 0H9.5C9.33554 9.87561e-05 9.17363 0.0407602 9.02864 0.118382C8.88364 0.196004 8.76003 0.30819 8.66875 0.445L6.96375 3H3.5C2.70435 3 1.94129 3.31607 1.37868 3.87868C0.816071 4.44129 0.5 5.20435 0.5 6V20C0.5 20.7956 0.816071 21.5587 1.37868 22.1213C1.94129 22.6839 2.70435 23 3.5 23H23.5C24.2956 23 25.0587 22.6839 25.6213 22.1213C26.1839 21.5587 26.5 20.7956 26.5 20V6C26.5 5.20435 26.1839 4.44129 25.6213 3.87868C25.0587 3.31607 24.2956 3 23.5 3ZM24.5 20C24.5 20.2652 24.3946 20.5196 24.2071 20.7071C24.0196 20.8946 23.7652 21 23.5 21H3.5C3.23478 21 2.98043 20.8946 2.79289 20.7071C2.60536 20.5196 2.5 20.2652 2.5 20V6C2.5 5.73478 2.60536 5.48043 2.79289 5.29289C2.98043 5.10536 3.23478 5 3.5 5H7.5C7.66468 5.00011 7.82683 4.95954 7.97206 4.88191C8.11729 4.80428 8.2411 4.69199 8.3325 4.555L10.035 2H16.9638L18.6675 4.555C18.7589 4.69199 18.8827 4.80428 19.0279 4.88191C19.1732 4.95954 19.3353 5.00011 19.5 5H23.5C23.7652 5 24.0196 5.10536 24.2071 5.29289C24.3946 5.48043 24.5 5.73478 24.5 6V20ZM13.5 7C12.4122 7 11.3488 7.32257 10.4444 7.92692C9.53989 8.53127 8.83494 9.39025 8.41866 10.3952C8.00238 11.4002 7.89346 12.5061 8.10568 13.573C8.3179 14.6399 8.84172 15.6199 9.61091 16.3891C10.3801 17.1583 11.3601 17.6821 12.427 17.8943C13.4939 18.1065 14.5998 17.9976 15.6048 17.5813C16.6098 17.1651 17.4687 16.4601 18.0731 15.5556C18.6774 14.6512 19 13.5878 19 12.5C18.9983 11.0418 18.4184 9.64383 17.3873 8.61274C16.3562 7.58165 14.9582 7.00165 13.5 7ZM13.5 16C12.8078 16 12.1311 15.7947 11.5555 15.4101C10.9799 15.0256 10.5313 14.4789 10.2664 13.8394C10.0015 13.1999 9.9322 12.4961 10.0673 11.8172C10.2023 11.1383 10.5356 10.5146 11.0251 10.0251C11.5146 9.53564 12.1383 9.2023 12.8172 9.06725C13.4961 8.9322 14.1999 9.00151 14.8394 9.26642C15.4789 9.53133 16.0256 9.97993 16.4101 10.5555C16.7947 11.1311 17 11.8078 17 12.5C17 13.4283 16.6313 14.3185 15.9749 14.9749C15.3185 15.6313 14.4283 16 13.5 16Z" fill="#00ADB5"/>
</svg>
