<svg width="27" height="27" viewBox="0 0 27 27" fill="none" xmlns="http://www.w3.org/2000/svg">
<path d="M12.5 23H6.5C6.23478 23 5.98043 22.8947 5.79289 22.7071C5.60536 22.5196 5.5 22.2652 5.5 22C5.5 21.7348 5.60536 21.4804 5.79289 21.2929C5.98043 21.1054 6.23478 21 6.5 21H12.5C12.7652 21 13.0196 21.1054 13.2071 21.2929C13.3946 21.4804 13.5 21.7348 13.5 22C13.5 22.2652 13.3946 22.5196 13.2071 22.7071C13.0196 22.8947 12.7652 23 12.5 23ZM20.5 21H17.5C17.2348 21 16.9804 21.1054 16.7929 21.2929C16.6054 21.4804 16.5 21.7348 16.5 22C16.5 22.2652 16.6054 22.5196 16.7929 22.7071C16.9804 22.8947 17.2348 23 17.5 23H20.5C20.7652 23 21.0196 22.8947 21.2071 22.7071C21.3946 22.5196 21.5 22.2652 21.5 22C21.5 21.7348 21.3946 21.4804 21.2071 21.2929C21.0196 21.1054 20.7652 21 20.5 21ZM17.5 25H10.5C10.2348 25 9.98043 25.1054 9.79289 25.2929C9.60536 25.4804 9.5 25.7348 9.5 26C9.5 26.2652 9.60536 26.5196 9.79289 26.7071C9.98043 26.8947 10.2348 27 10.5 27H17.5C17.7652 27 18.0196 26.8947 18.2071 26.7071C18.3946 26.5196 18.5 26.2652 18.5 26C18.5 25.7348 18.3946 25.4804 18.2071 25.2929C18.0196 25.1054 17.7652 25 17.5 25ZM26.5 9.50001C26.4974 12.0188 25.4956 14.4336 23.7146 16.2146C21.9336 17.9956 19.5187 18.9974 17 19H7C5.27609 19 3.62279 18.3152 2.40381 17.0962C1.18482 15.8772 0.5 14.2239 0.5 12.5C0.5 10.7761 1.18482 9.12281 2.40381 7.90382C3.62279 6.68483 5.27609 6.00001 7 6.00001C7.37367 6.00033 7.74666 6.03211 8.115 6.09501C8.91252 4.02347 10.4096 2.29617 12.3467 1.21238C14.2839 0.128579 16.5392 -0.243427 18.7219 0.160809C20.9045 0.565045 22.877 1.72005 24.2975 3.42572C25.7181 5.1314 26.4973 7.28026 26.5 9.50001ZM24.5 9.50001C24.492 7.55259 23.7276 5.68447 22.3681 4.29005C21.0087 2.89563 19.1605 2.08404 17.2139 2.02662C15.2673 1.96919 13.3746 2.67043 11.9353 3.98228C10.496 5.29414 9.62278 7.11394 9.5 9.05751C9.49245 9.18884 9.45911 9.31738 9.40188 9.43582C9.34464 9.55426 9.26465 9.66026 9.16645 9.74778C8.96813 9.92453 8.70772 10.0153 8.4425 10C8.17728 9.98476 7.92899 9.86478 7.75223 9.66646C7.57548 9.46814 7.48475 9.20773 7.5 8.94251C7.5175 8.63751 7.54958 8.33626 7.59625 8.03876C7.39851 8.01338 7.19937 8.00044 7 8.00001C5.80653 8.00001 4.66193 8.47412 3.81802 9.31803C2.97411 10.1619 2.5 11.3065 2.5 12.5C2.5 13.6935 2.97411 14.8381 3.81802 15.682C4.66193 16.5259 5.80653 17 7 17H17C18.9884 16.9977 20.8947 16.2068 22.3007 14.8008C23.7068 13.3947 24.4977 11.4884 24.5 9.50001Z" fill="#00ADB5"/>
</svg>
