<svg width="20" height="21" viewBox="0 0 20 21" fill="none" xmlns="http://www.w3.org/2000/svg">
<path d="M18.25 0.75H1.75C1.35218 0.75 0.970644 0.908035 0.68934 1.18934C0.408035 1.47064 0.25 1.85218 0.25 2.25V18.75C0.25 19.1478 0.408035 19.5294 0.68934 19.8107C0.970644 20.092 1.35218 20.25 1.75 20.25H18.25C18.6478 20.25 19.0294 20.092 19.3107 19.8107C19.592 19.5294 19.75 19.1478 19.75 18.75V2.25C19.75 1.85218 19.592 1.47064 19.3107 1.18934C19.0294 0.908035 18.6478 0.75 18.25 0.75ZM7 15C7 15.1989 6.92098 15.3897 6.78033 15.5303C6.63968 15.671 6.44891 15.75 6.25 15.75C6.05109 15.75 5.86032 15.671 5.71967 15.5303C5.57902 15.3897 5.5 15.1989 5.5 15V9C5.5 8.80109 5.57902 8.61032 5.71967 8.46967C5.86032 8.32902 6.05109 8.25 6.25 8.25C6.44891 8.25 6.63968 8.32902 6.78033 8.46967C6.92098 8.61032 7 8.80109 7 9V15ZM6.25 7.5C6.0275 7.5 5.80999 7.43402 5.62498 7.3104C5.43998 7.18679 5.29578 7.01109 5.21064 6.80552C5.12549 6.59995 5.10321 6.37375 5.14662 6.15552C5.19002 5.93729 5.29717 5.73684 5.4545 5.5795C5.61184 5.42217 5.81229 5.31502 6.03052 5.27162C6.24875 5.22821 6.47495 5.25049 6.68052 5.33564C6.88609 5.42078 7.06179 5.56498 7.1854 5.74998C7.30902 5.93499 7.375 6.1525 7.375 6.375C7.375 6.67337 7.25647 6.95952 7.0455 7.1705C6.83452 7.38147 6.54837 7.5 6.25 7.5ZM15.25 15C15.25 15.1989 15.171 15.3897 15.0303 15.5303C14.8897 15.671 14.6989 15.75 14.5 15.75C14.3011 15.75 14.1103 15.671 13.9697 15.5303C13.829 15.3897 13.75 15.1989 13.75 15V11.625C13.75 11.1277 13.5525 10.6508 13.2008 10.2992C12.8492 9.94754 12.3723 9.75 11.875 9.75C11.3777 9.75 10.9008 9.94754 10.5492 10.2992C10.1975 10.6508 10 11.1277 10 11.625V15C10 15.1989 9.92098 15.3897 9.78033 15.5303C9.63968 15.671 9.44891 15.75 9.25 15.75C9.05109 15.75 8.86032 15.671 8.71967 15.5303C8.57902 15.3897 8.5 15.1989 8.5 15V9C8.50093 8.81629 8.56926 8.63931 8.69201 8.50264C8.81477 8.36596 8.98342 8.2791 9.16598 8.25852C9.34853 8.23794 9.53229 8.28508 9.68239 8.391C9.8325 8.49691 9.93851 8.65423 9.98031 8.83313C10.4877 8.48894 11.0792 8.28947 11.6914 8.25611C12.3036 8.22276 12.9133 8.35679 13.455 8.64381C13.9968 8.93083 14.4501 9.36 14.7664 9.88523C15.0826 10.4105 15.2498 11.0119 15.25 11.625V15Z" fill="#EEEEEE"/>
</svg>
