<svg width="24" height="25" viewBox="0 0 24 25" fill="none" xmlns="http://www.w3.org/2000/svg">
<path d="M23.0092 4.93531C22.8736 4.72472 22.6872 4.55159 22.4672 4.43184C22.2472 4.31209 22.0006 4.24956 21.7501 4.25H8.32608C8.03717 4.24998 7.75439 4.3334 7.51174 4.49023C7.2691 4.64706 7.07691 4.87063 6.95827 5.13406L0.883271 18.6341C0.780421 18.8624 0.736398 19.1129 0.755217 19.3627C0.774036 19.6125 0.855098 19.8535 0.991008 20.0639C1.12692 20.2743 1.31335 20.4473 1.53329 20.5672C1.75323 20.687 1.99968 20.7499 2.25015 20.75H15.6742C15.9631 20.75 16.2459 20.6666 16.4885 20.5098C16.7312 20.3529 16.9234 20.1294 17.042 19.8659L23.117 6.36594C23.22 6.13745 23.2641 5.88681 23.2452 5.6369C23.2264 5.38699 23.1453 5.14579 23.0092 4.93531ZM15.6742 19.25H2.25015L8.32608 5.75H21.7501L15.6742 19.25Z" fill="#EEEEEE"/>
</svg>
