<svg width="27" height="26" viewBox="0 0 27 26" fill="none" xmlns="http://www.w3.org/2000/svg">
<path d="M19.2075 9.2925C19.3005 9.38537 19.3742 9.49566 19.4246 9.61706C19.4749 9.73846 19.5008 9.86858 19.5008 10C19.5008 10.1314 19.4749 10.2615 19.4246 10.3829C19.3742 10.5043 19.3005 10.6146 19.2075 10.7075L12.2075 17.7075C12.1146 17.8005 12.0043 17.8742 11.8829 17.9246C11.7615 17.9749 11.6314 18.0008 11.5 18.0008C11.3686 18.0008 11.2385 17.9749 11.1171 17.9246C10.9957 17.8742 10.8854 17.8005 10.7925 17.7075L7.79251 14.7075C7.60486 14.5199 7.49945 14.2654 7.49945 14C7.49945 13.7346 7.60486 13.4801 7.79251 13.2925C7.98015 13.1049 8.23464 12.9994 8.50001 12.9994C8.76537 12.9994 9.01987 13.1049 9.20751 13.2925L11.5 15.5863L17.7925 9.2925C17.8854 9.19952 17.9957 9.12576 18.1171 9.07544C18.2385 9.02512 18.3686 8.99921 18.5 8.99921C18.6314 8.99921 18.7615 9.02512 18.8829 9.07544C19.0043 9.12576 19.1146 9.19952 19.2075 9.2925ZM26.5 13C26.5 15.5712 25.7376 18.0846 24.3091 20.2224C22.8807 22.3603 20.8503 24.0265 18.4749 25.0104C16.0995 25.9944 13.4856 26.2518 10.9638 25.7502C8.44208 25.2486 6.1257 24.0105 4.30762 22.1924C2.48953 20.3743 1.25141 18.0579 0.749797 15.5362C0.248189 13.0144 0.505633 10.4006 1.48957 8.02512C2.47351 5.64968 4.13975 3.61935 6.27759 2.1909C8.41543 0.762437 10.9288 0 13.5 0C16.9467 0.00363977 20.2512 1.37445 22.6884 3.81163C25.1256 6.24882 26.4964 9.5533 26.5 13ZM24.5 13C24.5 10.8244 23.8549 8.69767 22.6462 6.88873C21.4375 5.07979 19.7195 3.66989 17.7095 2.83733C15.6995 2.00476 13.4878 1.78692 11.354 2.21136C9.22022 2.6358 7.26021 3.68345 5.72183 5.22183C4.18345 6.7602 3.13581 8.72022 2.71137 10.854C2.28693 12.9878 2.50477 15.1995 3.33733 17.2095C4.16989 19.2195 5.57979 20.9375 7.38873 22.1462C9.19767 23.3549 11.3244 24 13.5 24C16.4164 23.9967 19.2123 22.8367 21.2745 20.7745C23.3367 18.7123 24.4967 15.9164 24.5 13Z" fill="#00ADB5"/>
</svg>
