<svg width="24" height="24" viewBox="0 0 24 24" fill="none" xmlns="http://www.w3.org/2000/svg">
<path d="M20.7087 19.2962C20.8954 19.4837 21.0002 19.7374 21.0002 20.0019C21.0002 20.2664 20.8954 20.5201 20.7087 20.7075C20.5725 20.8413 17.3525 24 12 24C7.32625 24 3.93375 21.2 2 19.0187V22C2 22.2652 1.89464 22.5196 1.70711 22.7071C1.51957 22.8946 1.26522 23 1 23C0.734784 23 0.48043 22.8946 0.292893 22.7071C0.105357 22.5196 0 22.2652 0 22V16C0 15.7348 0.105357 15.4804 0.292893 15.2929C0.48043 15.1054 0.734784 15 1 15H7C7.26522 15 7.51957 15.1054 7.70711 15.2929C7.89464 15.4804 8 15.7348 8 16C8 16.2652 7.89464 16.5196 7.70711 16.7071C7.51957 16.8946 7.26522 17 7 17H2.93C4.47 18.9188 7.625 22 12 22C16.5 22 19.2675 19.3175 19.295 19.29C19.4833 19.1034 19.7381 18.9993 20.0032 19.0005C20.2683 19.0016 20.5221 19.108 20.7087 19.2962ZM23 1C22.7348 1 22.4804 1.10536 22.2929 1.29289C22.1054 1.48043 22 1.73478 22 2V4.98125C20.0662 2.8 16.6737 0 12 0C6.6475 0 3.4275 3.15875 3.2925 3.2925C3.10453 3.47981 2.99866 3.73412 2.99819 3.99948C2.99773 4.26485 3.10269 4.51953 3.29 4.7075C3.47731 4.89547 3.73162 5.00134 3.99698 5.00181C4.26235 5.00227 4.51703 4.89731 4.705 4.71C4.7325 4.6825 7.5 2 12 2C16.375 2 19.53 5.08125 21.07 7H17C16.7348 7 16.4804 7.10536 16.2929 7.29289C16.1054 7.48043 16 7.73478 16 8C16 8.26522 16.1054 8.51957 16.2929 8.70711C16.4804 8.89464 16.7348 9 17 9H23C23.2652 9 23.5196 8.89464 23.7071 8.70711C23.8946 8.51957 24 8.26522 24 8V2C24 1.73478 23.8946 1.48043 23.7071 1.29289C23.5196 1.10536 23.2652 1 23 1Z" fill="white"/>
</svg>
