<svg width="21" height="19" viewBox="0 0 21 19" fill="none" xmlns="http://www.w3.org/2000/svg">
<path d="M20.0308 3.78068L17.2277 6.58381C16.6614 13.1482 11.1255 18.2501 4.50017 18.2501C3.13892 18.2501 2.01673 18.0344 1.16454 17.6088C0.477356 17.2647 0.196106 16.8963 0.125794 16.7913C0.0630978 16.6973 0.0224604 16.5903 0.00691816 16.4784C-0.0086241 16.3664 0.00133073 16.2524 0.0360384 16.1449C0.070746 16.0373 0.129309 15.939 0.207352 15.8573C0.285395 15.7756 0.3809 15.7125 0.486731 15.6729C0.511106 15.6635 2.75923 14.8001 4.18704 13.1566C3.39522 12.5056 2.70399 11.7411 2.13579 10.8879C0.973294 9.16193 -0.327956 6.16381 0.0732935 1.6835C0.0860119 1.54113 0.139145 1.40537 0.226437 1.29219C0.313728 1.17901 0.431542 1.09313 0.566004 1.04467C0.700467 0.9962 0.845979 0.987166 0.985404 1.01863C1.12483 1.05009 1.25236 1.12073 1.35298 1.22225C1.38579 1.25506 4.47298 4.32537 8.24736 5.32099V4.75006C8.24592 4.15136 8.36429 3.55844 8.59549 3.00619C8.8267 2.45394 9.16606 1.95353 9.59361 1.53443C10.0088 1.1198 10.5029 0.792535 11.0466 0.571943C11.5904 0.351352 12.1728 0.241904 12.7595 0.250058C13.5466 0.257821 14.3183 0.469108 14.9996 0.863375C15.6808 1.25764 16.2485 1.82148 16.6474 2.50006H19.5002C19.6486 2.49994 19.7937 2.54386 19.9172 2.62627C20.0406 2.70867 20.1368 2.82585 20.1936 2.96297C20.2505 3.10008 20.2653 3.25097 20.2363 3.39654C20.2073 3.5421 20.1358 3.67579 20.0308 3.78068Z" fill="#EEEEEE"/>
</svg>
