<svg version="1.0" xmlns="http://www.w3.org/2000/svg"
 width="512.000000pt" height="512.000000pt" viewBox="0 0 512.000000 512.000000"
 preserveAspectRatio="xMidYMid meet">

<g transform="translate(0.000000,512.000000) scale(0.100000,-0.100000)"
fill="#000000" stroke="none">
<path d="M1405 4673 c-47 -24 -86 -64 -106 -108 -18 -38 -19 -106 -19 -1725
l0 -1685 -257 257 c-142 141 -274 264 -293 274 -73 38 -188 16 -247 -48 -54
-57 -69 -167 -34 -236 24 -46 914 -934 958 -956 44 -22 128 -20 177 4 27 13
196 176 497 477 389 391 457 464 467 499 18 63 14 105 -14 163 -45 90 -139
133 -239 110 -47 -11 -64 -26 -317 -277 l-268 -266 -2 1690 -3 1689 -22 40
c-27 50 -58 80 -105 100 -48 19 -134 19 -173 -2z"/>
<path d="M3754 4676 c-77 -35 -82 -44 -433 -864 l-334 -780 5 -61 c8 -114 96
-196 208 -195 100 1 166 52 210 158 l22 56 408 0 408 0 22 -56 c44 -107 111
-157 211 -157 71 0 132 32 174 91 27 39 30 52 30 115 l0 72 -329 765 c-181
421 -337 776 -348 790 -41 52 -86 74 -156 77 -42 2 -79 -2 -98 -11z m199 -999
c59 -138 107 -255 107 -259 0 -5 -99 -8 -220 -8 -121 0 -220 3 -220 8 0 12
215 512 220 512 3 0 53 -114 113 -253z"/>
<path d="M3241 2335 c-61 -19 -118 -78 -137 -140 -30 -102 13 -202 107 -249
l53 -26 348 0 347 0 -414 -580 c-228 -319 -422 -595 -431 -613 -43 -82 -9
-203 74 -262 l44 -30 608 0 608 0 44 30 c138 97 118 306 -34 370 -31 12 -94
15 -384 15 -279 0 -345 3 -341 13 3 7 192 275 420 594 228 320 418 590 420
600 27 94 12 159 -53 223 -32 33 -59 50 -92 58 -72 18 -1128 15 -1187 -3z"/>
</g>
</svg>
