<?xml version="1.0" encoding="UTF-8"?>
<svg version="1.1" xmlns="http://www.w3.org/2000/svg" width="32" height="32">
<path d="M0 0 C3.32759923 1.55194754 5.48580485 3.30621949 8 6 C5.78243108 10.94508947 2.17745063 14.34508497 -1.5625 18.1875 C-2.24119141 18.92419922 -2.91988281 19.66089844 -3.61914062 20.41992188 C-7.23967644 24.12917958 -9.76279166 26.39943517 -15.02734375 26.98828125 C-16.99380859 26.99408203 -16.99380859 26.99408203 -19 27 C-19.1058849 20.77770493 -18.29333576 17.74348607 -13.96484375 13.18359375 C-12.30909031 11.58061333 -10.63253456 9.99888513 -8.9375 8.4375 C-7.65649414 7.21063477 -7.65649414 7.21063477 -6.34960938 5.95898438 C-4.25006464 3.95327404 -2.13422548 1.96865824 0 0 Z " fill="#FFFFFF" transform="translate(19,5)"/>
<path d="M0 0 C2.5 0.4375 2.5 0.4375 4.3125 1.625 C5.94052002 4.10987266 6.00975499 5.52461432 5.5 8.4375 C3.5 10.25 3.5 10.25 1.5 11.4375 C-0.81 9.1275 -3.12 6.8175 -5.5 4.4375 C-3.19747167 0.55955754 -3.19747167 0.55955754 0 0 Z " fill="#FFFFFF" transform="translate(26.5,-0.4375)"/>
</svg>
