<svg version="1.0" xmlns="http://www.w3.org/2000/svg"
 width="18.000000pt" height="18.000000pt" viewBox="0 0 512.000000 512.000000"
 preserveAspectRatio="xMidYMid meet">

<g transform="translate(0.000000,512.000000) scale(0.100000,-0.100000)"
fill="#fbfbfb" stroke="none">
<path d="M1405 4654 c-44 -23 -933 -912 -956 -956 -35 -69 -20 -179 34 -236
59 -64 174 -86 247 -48 19 10 151 133 293 274 l257 257 0 -1683 c0 -1499 2
-1687 16 -1720 33 -79 110 -132 194 -132 88 0 152 38 193 115 l22 40 3 1689 2
1690 268 -266 c253 -251 270 -266 317 -277 100 -23 194 20 239 110 28 58 32
100 14 163 -10 35 -78 108 -467 499 -301 301 -470 464 -497 477 -49 24 -136
26 -179 4z"/>
<path d="M3191 4605 c-61 -19 -118 -78 -137 -140 -30 -102 13 -202 107 -249
l53 -26 348 0 347 0 -414 -580 c-228 -319 -422 -595 -431 -613 -43 -82 -9
-203 74 -262 l44 -30 608 0 608 0 44 30 c138 97 118 306 -34 370 -31 12 -94
15 -384 15 -279 0 -345 3 -341 13 3 7 192 275 420 594 228 320 418 590 420
600 27 94 12 159 -53 223 -32 33 -59 50 -92 58 -72 18 -1128 15 -1187 -3z"/>
<path d="M3724 2296 c-77 -35 -82 -44 -433 -864 l-334 -780 5 -61 c8 -114 96
-196 208 -195 100 1 166 52 210 158 l22 56 408 0 408 0 22 -56 c44 -107 111
-157 211 -157 71 0 132 32 174 91 27 39 30 52 30 115 l0 72 -329 765 c-181
421 -337 776 -348 790 -41 52 -86 74 -156 77 -42 2 -79 -2 -98 -11z m199 -999
c59 -138 107 -255 107 -259 0 -5 -99 -8 -220 -8 -121 0 -220 3 -220 8 0 12
215 512 220 512 3 0 53 -114 113 -253z"/>
</g>
</svg>
